<svg xmlns="http://www.w3.org/2000/svg" xmlns:xlink="http://www.w3.org/1999/xlink" width="200" zoomAndPan="magnify" viewBox="0 0 150 37.5" height="50" preserveAspectRatio="xMidYMid meet" version="1.0"><defs><g/><clipPath id="ff5c3b198f"><path d="M 0.988281 0 L 54 0 L 54 37 L 0.988281 37 Z M 0.988281 0 " clip-rule="nonzero"/></clipPath><clipPath id="7d8e206994"><path d="M 7 2.007812 L 25 2.007812 L 25 29 L 7 29 Z M 7 2.007812 " clip-rule="nonzero"/></clipPath><clipPath id="9459838604"><path d="M 29 2.007812 L 47 2.007812 L 47 29 L 29 29 Z M 29 2.007812 " clip-rule="nonzero"/></clipPath><clipPath id="deb88ef892"><path d="M 0.996094 10.136719 L 20.679688 10.136719 L 20.679688 36.519531 L 0.996094 36.519531 Z M 0.996094 10.136719 " clip-rule="nonzero"/></clipPath><clipPath id="181f897c29"><path d="M 33.175781 10.136719 L 52.871094 10.136719 L 52.871094 36.519531 L 33.175781 36.519531 Z M 33.175781 10.136719 " clip-rule="nonzero"/></clipPath><clipPath id="e6820311a3"><path d="M 21.886719 0.472656 L 31.996094 0.472656 L 31.996094 9.324219 L 21.886719 9.324219 Z M 21.886719 0.472656 " clip-rule="nonzero"/></clipPath><clipPath id="5fc0a2332c"><path d="M 22.285156 1.898438 C 21.46875 3.25 22.042969 4.5625 22.769531 5.257812 L 27.007812 9.324219 L 31.15625 5.273438 C 31.828125 4.523438 32.085938 3.726562 31.945312 2.84375 C 31.746094 1.617188 30.738281 0.667969 29.488281 0.53125 C 28.726562 0.449219 27.988281 0.667969 27.410156 1.144531 C 27.253906 1.273438 27.117188 1.417969 26.996094 1.574219 C 26.851562 1.394531 26.683594 1.234375 26.492188 1.089844 C 25.832031 0.585938 24.988281 0.386719 24.175781 0.539062 C 23.410156 0.6875 22.71875 1.183594 22.285156 1.898438 Z M 22.285156 1.898438 " clip-rule="nonzero"/></clipPath><clipPath id="28f018d02d"><path d="M 0.886719 0.488281 L 10.980469 0.488281 L 10.980469 9.324219 L 0.886719 9.324219 Z M 0.886719 0.488281 " clip-rule="nonzero"/></clipPath><clipPath id="2a6bae24e7"><path d="M 1.285156 1.898438 C 0.46875 3.25 1.042969 4.5625 1.769531 5.257812 L 6.007812 9.324219 L 10.15625 5.273438 C 10.828125 4.523438 11.085938 3.726562 10.945312 2.84375 C 10.746094 1.617188 9.738281 0.667969 8.488281 0.53125 C 7.726562 0.449219 6.988281 0.667969 6.410156 1.144531 C 6.253906 1.273438 6.117188 1.417969 5.996094 1.574219 C 5.851562 1.394531 5.683594 1.234375 5.492188 1.089844 C 4.832031 0.585938 3.988281 0.386719 3.175781 0.539062 C 2.410156 0.6875 1.71875 1.183594 1.285156 1.898438 Z M 1.285156 1.898438 " clip-rule="nonzero"/></clipPath><radialGradient gradientTransform="matrix(1, 0, 0, 1, 0.885781, 0.488863)" gradientUnits="userSpaceOnUse" r="13.415542" cx="0" id="eb7bb8866a" cy="0" fx="0" fy="0"><stop stop-opacity="1" stop-color="rgb(80.612183%, 23.048401%, 90.237427%)" offset="0"/><stop stop-opacity="1" stop-color="rgb(80.361938%, 22.912598%, 90.293884%)" offset="0.0078125"/><stop stop-opacity="1" stop-color="rgb(80.194092%, 22.822571%, 90.332031%)" offset="0.0117188"/><stop stop-opacity="1" stop-color="rgb(80.027771%, 22.732544%, 90.370178%)" offset="0.015625"/><stop stop-opacity="1" stop-color="rgb(79.859924%, 22.640991%, 90.409851%)" offset="0.0195312"/><stop stop-opacity="1" stop-color="rgb(79.693604%, 22.550964%, 90.447998%)" offset="0.0234375"/><stop stop-opacity="1" stop-color="rgb(79.527283%, 22.460938%, 90.486145%)" offset="0.0273438"/><stop stop-opacity="1" stop-color="rgb(79.359436%, 22.370911%, 90.524292%)" offset="0.03125"/><stop stop-opacity="1" stop-color="rgb(79.193115%, 22.279358%, 90.562439%)" offset="0.0351562"/><stop stop-opacity="1" stop-color="rgb(79.025269%, 22.189331%, 90.600586%)" offset="0.0390625"/><stop stop-opacity="1" stop-color="rgb(78.858948%, 22.099304%, 90.638733%)" offset="0.0429688"/><stop stop-opacity="1" stop-color="rgb(78.692627%, 22.009277%, 90.67688%)" offset="0.046875"/><stop stop-opacity="1" stop-color="rgb(78.52478%, 21.917725%, 90.715027%)" offset="0.0507812"/><stop stop-opacity="1" stop-color="rgb(78.358459%, 21.827698%, 90.753174%)" offset="0.0546875"/><stop stop-opacity="1" stop-color="rgb(78.190613%, 21.737671%, 90.791321%)" offset="0.0585938"/><stop stop-opacity="1" stop-color="rgb(78.024292%, 21.647644%, 90.829468%)" offset="0.0625"/><stop stop-opacity="1" stop-color="rgb(77.856445%, 21.556091%, 90.869141%)" offset="0.0664062"/><stop stop-opacity="1" stop-color="rgb(77.690125%, 21.466064%, 90.907288%)" offset="0.0703125"/><stop stop-opacity="1" stop-color="rgb(77.523804%, 21.376038%, 90.945435%)" offset="0.0742188"/><stop stop-opacity="1" stop-color="rgb(77.355957%, 21.286011%, 90.983582%)" offset="0.078125"/><stop stop-opacity="1" stop-color="rgb(77.189636%, 21.195984%, 91.021729%)" offset="0.0820312"/><stop stop-opacity="1" stop-color="rgb(77.02179%, 21.104431%, 91.059875%)" offset="0.0859375"/><stop stop-opacity="1" stop-color="rgb(76.855469%, 21.014404%, 91.098022%)" offset="0.0898438"/><stop stop-opacity="1" stop-color="rgb(76.689148%, 20.924377%, 91.136169%)" offset="0.09375"/><stop stop-opacity="1" stop-color="rgb(76.521301%, 20.834351%, 91.174316%)" offset="0.0976562"/><stop stop-opacity="1" stop-color="rgb(76.35498%, 20.742798%, 91.212463%)" offset="0.101562"/><stop stop-opacity="1" stop-color="rgb(76.187134%, 20.652771%, 91.25061%)" offset="0.105469"/><stop stop-opacity="1" stop-color="rgb(76.020813%, 20.562744%, 91.290283%)" offset="0.109375"/><stop stop-opacity="1" stop-color="rgb(75.852966%, 20.472717%, 91.32843%)" offset="0.113281"/><stop stop-opacity="1" stop-color="rgb(75.686646%, 20.381165%, 91.366577%)" offset="0.117188"/><stop stop-opacity="1" stop-color="rgb(75.520325%, 20.291138%, 91.404724%)" offset="0.121094"/><stop stop-opacity="1" stop-color="rgb(75.352478%, 20.201111%, 91.442871%)" offset="0.125"/><stop stop-opacity="1" stop-color="rgb(75.186157%, 20.111084%, 91.481018%)" offset="0.128906"/><stop stop-opacity="1" stop-color="rgb(75.018311%, 20.019531%, 91.519165%)" offset="0.132812"/><stop stop-opacity="1" stop-color="rgb(74.85199%, 19.929504%, 91.557312%)" offset="0.136719"/><stop stop-opacity="1" stop-color="rgb(74.685669%, 19.839478%, 91.595459%)" offset="0.140625"/><stop stop-opacity="1" stop-color="rgb(74.517822%, 19.749451%, 91.633606%)" offset="0.144531"/><stop stop-opacity="1" stop-color="rgb(74.351501%, 19.657898%, 91.671753%)" offset="0.148438"/><stop stop-opacity="1" stop-color="rgb(74.183655%, 19.567871%, 91.7099%)" offset="0.152344"/><stop stop-opacity="1" stop-color="rgb(74.017334%, 19.477844%, 91.749573%)" offset="0.15625"/><stop stop-opacity="1" stop-color="rgb(73.849487%, 19.387817%, 91.78772%)" offset="0.160156"/><stop stop-opacity="1" stop-color="rgb(73.683167%, 19.297791%, 91.825867%)" offset="0.164062"/><stop stop-opacity="1" stop-color="rgb(73.516846%, 19.206238%, 91.864014%)" offset="0.167969"/><stop stop-opacity="1" stop-color="rgb(73.348999%, 19.116211%, 91.902161%)" offset="0.171875"/><stop stop-opacity="1" stop-color="rgb(73.182678%, 19.026184%, 91.940308%)" offset="0.175781"/><stop stop-opacity="1" stop-color="rgb(73.014832%, 18.936157%, 91.978455%)" offset="0.179688"/><stop stop-opacity="1" stop-color="rgb(72.848511%, 18.844604%, 92.016602%)" offset="0.183594"/><stop stop-opacity="1" stop-color="rgb(72.68219%, 18.754578%, 92.054749%)" offset="0.1875"/><stop stop-opacity="1" stop-color="rgb(72.514343%, 18.664551%, 92.092896%)" offset="0.191406"/><stop stop-opacity="1" stop-color="rgb(72.348022%, 18.574524%, 92.131042%)" offset="0.195312"/><stop stop-opacity="1" stop-color="rgb(72.180176%, 18.482971%, 92.170715%)" offset="0.199219"/><stop stop-opacity="1" stop-color="rgb(72.013855%, 18.392944%, 92.208862%)" offset="0.203125"/><stop stop-opacity="1" stop-color="rgb(71.847534%, 18.302917%, 92.247009%)" offset="0.207031"/><stop stop-opacity="1" stop-color="rgb(71.679688%, 18.212891%, 92.285156%)" offset="0.210938"/><stop stop-opacity="1" stop-color="rgb(71.513367%, 18.121338%, 92.323303%)" offset="0.214844"/><stop stop-opacity="1" stop-color="rgb(71.34552%, 18.031311%, 92.36145%)" offset="0.21875"/><stop stop-opacity="1" stop-color="rgb(71.179199%, 17.941284%, 92.399597%)" offset="0.222656"/><stop stop-opacity="1" stop-color="rgb(71.011353%, 17.851257%, 92.437744%)" offset="0.226562"/><stop stop-opacity="1" stop-color="rgb(70.845032%, 17.759705%, 92.475891%)" offset="0.230469"/><stop stop-opacity="1" stop-color="rgb(70.678711%, 17.669678%, 92.514038%)" offset="0.234375"/><stop stop-opacity="1" stop-color="rgb(70.510864%, 17.579651%, 92.552185%)" offset="0.238281"/><stop stop-opacity="1" stop-color="rgb(70.344543%, 17.489624%, 92.591858%)" offset="0.242188"/><stop stop-opacity="1" stop-color="rgb(70.176697%, 17.399597%, 92.630005%)" offset="0.246094"/><stop stop-opacity="1" stop-color="rgb(70.010376%, 17.308044%, 92.668152%)" offset="0.25"/><stop stop-opacity="1" stop-color="rgb(69.760132%, 17.173767%, 92.726135%)" offset="0.253906"/><stop stop-opacity="1" stop-color="rgb(69.425964%, 16.992188%, 92.802429%)" offset="0.261719"/><stop stop-opacity="1" stop-color="rgb(69.091797%, 16.812134%, 92.878723%)" offset="0.269531"/><stop stop-opacity="1" stop-color="rgb(68.757629%, 16.630554%, 92.955017%)" offset="0.277344"/><stop stop-opacity="1" stop-color="rgb(68.423462%, 16.4505%, 93.031311%)" offset="0.285156"/><stop stop-opacity="1" stop-color="rgb(68.09082%, 16.268921%, 93.109131%)" offset="0.292969"/><stop stop-opacity="1" stop-color="rgb(67.756653%, 16.088867%, 93.185425%)" offset="0.300781"/><stop stop-opacity="1" stop-color="rgb(67.422485%, 15.907288%, 93.261719%)" offset="0.308594"/><stop stop-opacity="1" stop-color="rgb(67.088318%, 15.727234%, 93.338013%)" offset="0.316406"/><stop stop-opacity="1" stop-color="rgb(66.75415%, 15.545654%, 93.414307%)" offset="0.324219"/><stop stop-opacity="1" stop-color="rgb(66.419983%, 15.365601%, 93.490601%)" offset="0.332031"/><stop stop-opacity="1" stop-color="rgb(66.087341%, 15.184021%, 93.56842%)" offset="0.339844"/><stop stop-opacity="1" stop-color="rgb(65.753174%, 15.003967%, 93.644714%)" offset="0.347656"/><stop stop-opacity="1" stop-color="rgb(65.419006%, 14.822388%, 93.721008%)" offset="0.355469"/><stop stop-opacity="1" stop-color="rgb(65.084839%, 14.642334%, 93.797302%)" offset="0.363281"/><stop stop-opacity="1" stop-color="rgb(64.750671%, 14.460754%, 93.873596%)" offset="0.371094"/><stop stop-opacity="1" stop-color="rgb(64.416504%, 14.280701%, 93.951416%)" offset="0.378906"/><stop stop-opacity="1" stop-color="rgb(64.083862%, 14.099121%, 94.02771%)" offset="0.386719"/><stop stop-opacity="1" stop-color="rgb(63.749695%, 13.919067%, 94.104004%)" offset="0.394531"/><stop stop-opacity="1" stop-color="rgb(63.415527%, 13.737488%, 94.180298%)" offset="0.402344"/><stop stop-opacity="1" stop-color="rgb(63.08136%, 13.557434%, 94.256592%)" offset="0.410156"/><stop stop-opacity="1" stop-color="rgb(62.747192%, 13.37738%, 94.332886%)" offset="0.417969"/><stop stop-opacity="1" stop-color="rgb(62.413025%, 13.195801%, 94.410706%)" offset="0.425781"/><stop stop-opacity="1" stop-color="rgb(62.080383%, 13.015747%, 94.487%)" offset="0.433594"/><stop stop-opacity="1" stop-color="rgb(61.746216%, 12.834167%, 94.563293%)" offset="0.441406"/><stop stop-opacity="1" stop-color="rgb(61.412048%, 12.654114%, 94.639587%)" offset="0.449219"/><stop stop-opacity="1" stop-color="rgb(61.077881%, 12.472534%, 94.715881%)" offset="0.457031"/><stop stop-opacity="1" stop-color="rgb(60.743713%, 12.29248%, 94.792175%)" offset="0.464844"/><stop stop-opacity="1" stop-color="rgb(60.411072%, 12.110901%, 94.869995%)" offset="0.472656"/><stop stop-opacity="1" stop-color="rgb(60.076904%, 11.930847%, 94.946289%)" offset="0.480469"/><stop stop-opacity="1" stop-color="rgb(59.742737%, 11.749268%, 95.022583%)" offset="0.488281"/><stop stop-opacity="1" stop-color="rgb(59.408569%, 11.569214%, 95.098877%)" offset="0.496094"/><stop stop-opacity="1" stop-color="rgb(59.158325%, 11.433411%, 95.155334%)" offset="0.503906"/><stop stop-opacity="1" stop-color="rgb(58.992004%, 11.343384%, 95.195007%)" offset="0.507812"/><stop stop-opacity="1" stop-color="rgb(58.824158%, 11.251831%, 95.233154%)" offset="0.511719"/><stop stop-opacity="1" stop-color="rgb(58.657837%, 11.161804%, 95.271301%)" offset="0.515625"/><stop stop-opacity="1" stop-color="rgb(58.48999%, 11.071777%, 95.309448%)" offset="0.519531"/><stop stop-opacity="1" stop-color="rgb(58.323669%, 10.98175%, 95.347595%)" offset="0.523438"/><stop stop-opacity="1" stop-color="rgb(58.157349%, 10.890198%, 95.385742%)" offset="0.527344"/><stop stop-opacity="1" stop-color="rgb(57.989502%, 10.800171%, 95.423889%)" offset="0.53125"/><stop stop-opacity="1" stop-color="rgb(57.823181%, 10.710144%, 95.462036%)" offset="0.535156"/><stop stop-opacity="1" stop-color="rgb(57.655334%, 10.620117%, 95.500183%)" offset="0.539062"/><stop stop-opacity="1" stop-color="rgb(57.489014%, 10.528564%, 95.53833%)" offset="0.542969"/><stop stop-opacity="1" stop-color="rgb(57.321167%, 10.438538%, 95.576477%)" offset="0.546875"/><stop stop-opacity="1" stop-color="rgb(57.154846%, 10.348511%, 95.614624%)" offset="0.550781"/><stop stop-opacity="1" stop-color="rgb(56.988525%, 10.258484%, 95.654297%)" offset="0.554688"/><stop stop-opacity="1" stop-color="rgb(56.820679%, 10.166931%, 95.692444%)" offset="0.558594"/><stop stop-opacity="1" stop-color="rgb(56.654358%, 10.076904%, 95.730591%)" offset="0.5625"/><stop stop-opacity="1" stop-color="rgb(56.486511%, 9.986877%, 95.768738%)" offset="0.566406"/><stop stop-opacity="1" stop-color="rgb(56.32019%, 9.896851%, 95.806885%)" offset="0.570312"/><stop stop-opacity="1" stop-color="rgb(56.15387%, 9.805298%, 95.845032%)" offset="0.574219"/><stop stop-opacity="1" stop-color="rgb(55.986023%, 9.715271%, 95.883179%)" offset="0.578125"/><stop stop-opacity="1" stop-color="rgb(55.819702%, 9.625244%, 95.921326%)" offset="0.582031"/><stop stop-opacity="1" stop-color="rgb(55.651855%, 9.535217%, 95.959473%)" offset="0.585938"/><stop stop-opacity="1" stop-color="rgb(55.485535%, 9.44519%, 95.99762%)" offset="0.589844"/><stop stop-opacity="1" stop-color="rgb(55.317688%, 9.353638%, 96.035767%)" offset="0.59375"/><stop stop-opacity="1" stop-color="rgb(55.151367%, 9.263611%, 96.075439%)" offset="0.597656"/><stop stop-opacity="1" stop-color="rgb(54.985046%, 9.173584%, 96.113586%)" offset="0.601562"/><stop stop-opacity="1" stop-color="rgb(54.8172%, 9.083557%, 96.151733%)" offset="0.605469"/><stop stop-opacity="1" stop-color="rgb(54.650879%, 8.992004%, 96.18988%)" offset="0.609375"/><stop stop-opacity="1" stop-color="rgb(54.483032%, 8.901978%, 96.228027%)" offset="0.613281"/><stop stop-opacity="1" stop-color="rgb(54.316711%, 8.811951%, 96.266174%)" offset="0.617188"/><stop stop-opacity="1" stop-color="rgb(54.150391%, 8.721924%, 96.304321%)" offset="0.621094"/><stop stop-opacity="1" stop-color="rgb(53.982544%, 8.630371%, 96.342468%)" offset="0.625"/><stop stop-opacity="1" stop-color="rgb(53.7323%, 8.496094%, 96.400452%)" offset="0.628906"/><stop stop-opacity="1" stop-color="rgb(53.398132%, 8.314514%, 96.476746%)" offset="0.636719"/><stop stop-opacity="1" stop-color="rgb(53.063965%, 8.13446%, 96.55304%)" offset="0.644531"/><stop stop-opacity="1" stop-color="rgb(52.729797%, 7.952881%, 96.630859%)" offset="0.652344"/><stop stop-opacity="1" stop-color="rgb(52.397156%, 7.772827%, 96.707153%)" offset="0.660156"/><stop stop-opacity="1" stop-color="rgb(52.062988%, 7.591248%, 96.783447%)" offset="0.667969"/><stop stop-opacity="1" stop-color="rgb(51.728821%, 7.411194%, 96.859741%)" offset="0.675781"/><stop stop-opacity="1" stop-color="rgb(51.394653%, 7.229614%, 96.936035%)" offset="0.683594"/><stop stop-opacity="1" stop-color="rgb(51.060486%, 7.049561%, 97.013855%)" offset="0.691406"/><stop stop-opacity="1" stop-color="rgb(50.726318%, 6.867981%, 97.090149%)" offset="0.699219"/><stop stop-opacity="1" stop-color="rgb(50.393677%, 6.687927%, 97.166443%)" offset="0.707031"/><stop stop-opacity="1" stop-color="rgb(50.059509%, 6.506348%, 97.242737%)" offset="0.714844"/><stop stop-opacity="1" stop-color="rgb(49.725342%, 6.326294%, 97.319031%)" offset="0.722656"/><stop stop-opacity="1" stop-color="rgb(49.391174%, 6.144714%, 97.395325%)" offset="0.730469"/><stop stop-opacity="1" stop-color="rgb(49.057007%, 5.964661%, 97.473145%)" offset="0.738281"/><stop stop-opacity="1" stop-color="rgb(48.724365%, 5.784607%, 97.549438%)" offset="0.746094"/><stop stop-opacity="1" stop-color="rgb(48.474121%, 5.648804%, 97.605896%)" offset="0.753906"/><stop stop-opacity="1" stop-color="rgb(48.306274%, 5.557251%, 97.644043%)" offset="0.757812"/><stop stop-opacity="1" stop-color="rgb(48.139954%, 5.467224%, 97.68219%)" offset="0.761719"/><stop stop-opacity="1" stop-color="rgb(47.972107%, 5.377197%, 97.720337%)" offset="0.765625"/><stop stop-opacity="1" stop-color="rgb(47.805786%, 5.28717%, 97.758484%)" offset="0.769531"/><stop stop-opacity="1" stop-color="rgb(47.637939%, 5.195618%, 97.796631%)" offset="0.773438"/><stop stop-opacity="1" stop-color="rgb(47.471619%, 5.105591%, 97.836304%)" offset="0.777344"/><stop stop-opacity="1" stop-color="rgb(47.305298%, 5.015564%, 97.874451%)" offset="0.78125"/><stop stop-opacity="1" stop-color="rgb(47.137451%, 4.925537%, 97.912598%)" offset="0.785156"/><stop stop-opacity="1" stop-color="rgb(46.97113%, 4.833984%, 97.950745%)" offset="0.789062"/><stop stop-opacity="1" stop-color="rgb(46.803284%, 4.743958%, 97.988892%)" offset="0.792969"/><stop stop-opacity="1" stop-color="rgb(46.636963%, 4.653931%, 98.027039%)" offset="0.796875"/><stop stop-opacity="1" stop-color="rgb(46.470642%, 4.563904%, 98.065186%)" offset="0.800781"/><stop stop-opacity="1" stop-color="rgb(46.302795%, 4.472351%, 98.103333%)" offset="0.804688"/><stop stop-opacity="1" stop-color="rgb(46.136475%, 4.382324%, 98.141479%)" offset="0.808594"/><stop stop-opacity="1" stop-color="rgb(45.968628%, 4.292297%, 98.179626%)" offset="0.8125"/><stop stop-opacity="1" stop-color="rgb(45.718384%, 4.156494%, 98.23761%)" offset="0.816406"/><stop stop-opacity="1" stop-color="rgb(45.384216%, 3.97644%, 98.31543%)" offset="0.824219"/><stop stop-opacity="1" stop-color="rgb(45.050049%, 3.794861%, 98.391724%)" offset="0.832031"/><stop stop-opacity="1" stop-color="rgb(44.717407%, 3.614807%, 98.468018%)" offset="0.839844"/><stop stop-opacity="1" stop-color="rgb(44.38324%, 3.433228%, 98.544312%)" offset="0.847656"/><stop stop-opacity="1" stop-color="rgb(44.049072%, 3.253174%, 98.620605%)" offset="0.855469"/><stop stop-opacity="1" stop-color="rgb(43.714905%, 3.071594%, 98.696899%)" offset="0.863281"/><stop stop-opacity="1" stop-color="rgb(43.380737%, 2.891541%, 98.774719%)" offset="0.871094"/><stop stop-opacity="1" stop-color="rgb(43.130493%, 2.755737%, 98.831177%)" offset="0.878906"/><stop stop-opacity="1" stop-color="rgb(42.964172%, 2.66571%, 98.869324%)" offset="0.882812"/><stop stop-opacity="1" stop-color="rgb(42.796326%, 2.574158%, 98.907471%)" offset="0.886719"/><stop stop-opacity="1" stop-color="rgb(42.630005%, 2.484131%, 98.945618%)" offset="0.890625"/><stop stop-opacity="1" stop-color="rgb(42.463684%, 2.394104%, 98.983765%)" offset="0.894531"/><stop stop-opacity="1" stop-color="rgb(42.295837%, 2.304077%, 99.021912%)" offset="0.898438"/><stop stop-opacity="1" stop-color="rgb(42.129517%, 2.212524%, 99.060059%)" offset="0.902344"/><stop stop-opacity="1" stop-color="rgb(41.96167%, 2.122498%, 99.098206%)" offset="0.90625"/><stop stop-opacity="1" stop-color="rgb(41.711426%, 1.98822%, 99.156189%)" offset="0.910156"/><stop stop-opacity="1" stop-color="rgb(41.377258%, 1.806641%, 99.234009%)" offset="0.917969"/><stop stop-opacity="1" stop-color="rgb(41.043091%, 1.626587%, 99.310303%)" offset="0.925781"/><stop stop-opacity="1" stop-color="rgb(40.710449%, 1.445007%, 99.386597%)" offset="0.933594"/><stop stop-opacity="1" stop-color="rgb(40.460205%, 1.309204%, 99.443054%)" offset="0.941406"/><stop stop-opacity="1" stop-color="rgb(40.292358%, 1.219177%, 99.481201%)" offset="0.945312"/><stop stop-opacity="1" stop-color="rgb(40.126038%, 1.12915%, 99.519348%)" offset="0.949219"/><stop stop-opacity="1" stop-color="rgb(39.958191%, 1.037598%, 99.559021%)" offset="0.953125"/><stop stop-opacity="1" stop-color="rgb(39.707947%, 0.90332%, 99.617004%)" offset="0.957031"/><stop stop-opacity="1" stop-color="rgb(39.373779%, 0.721741%, 99.693298%)" offset="0.964844"/><stop stop-opacity="1" stop-color="rgb(39.123535%, 0.585938%, 99.749756%)" offset="0.972656"/><stop stop-opacity="1" stop-color="rgb(38.957214%, 0.495911%, 99.787903%)" offset="0.976562"/><stop stop-opacity="1" stop-color="rgb(38.70697%, 0.360107%, 99.845886%)" offset="0.980469"/><stop stop-opacity="1" stop-color="rgb(38.456726%, 0.224304%, 99.902344%)" offset="0.988281"/><stop stop-opacity="1" stop-color="rgb(38.204956%, 0.0900269%, 99.960327%)" offset="0.992188"/><stop stop-opacity="1" stop-color="rgb(38.038635%, 0%, 100%)" offset="1"/></radialGradient><clipPath id="68dec54d1a"><rect x="0" width="11" y="0" height="10"/></clipPath><clipPath id="368780fd6c"><rect x="0" width="54" y="0" height="37"/></clipPath></defs><g clip-path="url(#ff5c3b198f)"><g transform="matrix(1, 0, 0, 1, 0.000000000000000222, -0.000000000000001499)"><g clip-path="url(#368780fd6c)"><g clip-path="url(#7d8e206994)"><path fill="#9440dd" d="M 17.171875 26.949219 C 19.046875 26.949219 21.722656 27.191406 24.46875 28.234375 C 22.875 27.363281 19.839844 26.070312 15.828125 26.070312 C 15.308594 26.070312 14.785156 26.09375 14.261719 26.136719 L 14.167969 26.144531 L 8.742188 3.476562 L 8.855469 3.453125 C 10.144531 3.203125 11.445312 3.074219 12.726562 3.074219 C 18.296875 3.074219 22.464844 5.476562 24.433594 6.886719 C 19.996094 2.675781 13.804688 2.007812 10.34375 2.007812 C 8.824219 2.007812 7.726562 2.132812 7.375 2.179688 L 13.128906 27.324219 C 13.542969 27.238281 15.085938 26.949219 17.171875 26.949219 " fill-opacity="1" fill-rule="nonzero"/></g><g clip-path="url(#9459838604)"><path fill="#9440dd" d="M 36.695312 26.949219 C 34.820312 26.949219 32.144531 27.191406 29.398438 28.234375 C 30.988281 27.363281 34.027344 26.070312 38.039062 26.070312 C 38.554688 26.070312 39.082031 26.09375 39.605469 26.136719 L 39.699219 26.144531 L 45.125 3.476562 L 45.011719 3.453125 C 43.722656 3.203125 42.421875 3.074219 41.140625 3.074219 C 35.570312 3.074219 31.402344 5.476562 29.433594 6.886719 C 33.871094 2.675781 40.0625 2.007812 43.523438 2.007812 C 45.042969 2.007812 46.140625 2.132812 46.492188 2.179688 L 40.738281 27.324219 C 40.324219 27.238281 38.78125 26.949219 36.695312 26.949219 " fill-opacity="1" fill-rule="nonzero"/></g><path fill="#6b1fad" d="M 10.960938 30.085938 C 13.546875 29.082031 16.230469 28.570312 18.9375 28.570312 C 20.683594 28.570312 22.144531 28.789062 23.191406 29.015625 C 21.425781 28.414062 19.410156 28.109375 17.175781 28.109375 C 14.285156 28.109375 12.066406 28.640625 12.046875 28.648438 L 11.9375 28.671875 L 11.910156 28.5625 L 6.332031 6.351562 L 6.441406 6.324219 C 6.855469 6.230469 7.410156 6.152344 7.902344 6.085938 L 8.03125 6.066406 L 7.753906 4.847656 C 6.394531 4.914062 5.273438 5.058594 4.914062 5.105469 L 10.960938 30.085938 " fill-opacity="1" fill-rule="nonzero"/><path fill="#6b1fad" d="M 42.90625 30.085938 C 40.320312 29.082031 37.636719 28.570312 34.929688 28.570312 C 33.183594 28.570312 31.722656 28.789062 30.675781 29.015625 C 32.441406 28.414062 34.457031 28.109375 36.6875 28.109375 C 39.582031 28.109375 41.796875 28.640625 41.820312 28.648438 L 41.929688 28.671875 L 41.957031 28.5625 L 47.535156 6.351562 L 47.425781 6.324219 C 47.011719 6.230469 46.457031 6.152344 45.964844 6.085938 L 45.835938 6.066406 L 46.113281 4.847656 C 47.472656 4.914062 48.59375 5.058594 48.953125 5.105469 L 42.90625 30.085938 " fill-opacity="1" fill-rule="nonzero"/><path fill="#5e17eb" d="M 3.773438 11.632812 L 9.132812 33.117188 C 14.777344 30.390625 19.285156 29.816406 22.085938 29.816406 C 22.382812 29.816406 22.660156 29.820312 22.917969 29.832031 C 21.9375 29.675781 20.925781 29.59375 19.890625 29.59375 C 14.609375 29.59375 10.277344 31.648438 10.234375 31.671875 L 10.109375 31.730469 L 4.339844 9.421875 L 4.449219 9.398438 C 4.820312 9.308594 5.207031 9.230469 5.660156 9.152344 L 5.417969 8.148438 L 5.363281 7.917969 C 4.109375 7.992188 3.21875 8.132812 2.914062 8.1875 L 3.386719 10.09375 L 3.773438 11.632812 " fill-opacity="1" fill-rule="nonzero"/><path fill="#5e17eb" d="M 50.09375 11.632812 L 44.734375 33.117188 C 39.089844 30.390625 34.582031 29.816406 31.78125 29.816406 C 31.484375 29.816406 31.207031 29.820312 30.949219 29.832031 C 31.925781 29.675781 32.9375 29.59375 33.976562 29.59375 C 39.257812 29.59375 43.589844 31.648438 43.632812 31.671875 L 43.757812 31.730469 L 49.527344 9.421875 L 49.417969 9.398438 C 49.046875 9.308594 48.660156 9.230469 48.207031 9.152344 L 48.449219 8.148438 L 48.503906 7.917969 C 49.757812 7.992188 50.648438 8.132812 50.953125 8.1875 L 50.480469 10.09375 L 50.09375 11.632812 " fill-opacity="1" fill-rule="nonzero"/><g clip-path="url(#deb88ef892)"><path fill="#4910bc" d="M 0.996094 10.441406 L 7.539062 36.519531 C 7.898438 36.230469 8.285156 35.941406 8.6875 35.660156 C 13.003906 32.640625 18.03125 31.238281 20.632812 30.671875 C 14.835938 31.226562 9.949219 33.773438 8.484375 34.601562 L 8.355469 34.675781 L 2.421875 11.675781 L 2.535156 11.652344 C 2.820312 11.582031 3.121094 11.519531 3.496094 11.453125 L 3.191406 10.238281 L 3.179688 10.1875 C 2.070312 10.265625 1.28125 10.390625 0.996094 10.441406 " fill-opacity="1" fill-rule="nonzero"/></g><g clip-path="url(#181f897c29)"><path fill="#4910bc" d="M 52.871094 10.441406 L 46.328125 36.519531 C 45.96875 36.230469 45.582031 35.941406 45.179688 35.660156 C 40.863281 32.640625 35.835938 31.238281 33.234375 30.671875 C 39.03125 31.226562 43.917969 33.773438 45.382812 34.601562 L 45.507812 34.675781 L 51.445312 11.675781 L 51.332031 11.652344 C 51.046875 11.582031 50.746094 11.519531 50.371094 11.453125 L 50.675781 10.238281 L 50.6875 10.1875 C 51.796875 10.265625 52.585938 10.390625 52.871094 10.441406 " fill-opacity="1" fill-rule="nonzero"/></g><g clip-path="url(#e6820311a3)"><g clip-path="url(#5fc0a2332c)"><g transform="matrix(1, 0, 0, 1, 21, -0.000000000000001499)"><g clip-path="url(#68dec54d1a)"><g clip-path="url(#28f018d02d)"><g clip-path="url(#2a6bae24e7)"><path fill="url(#eb7bb8866a)" d="M 0.886719 0.488281 L 0.886719 9.324219 L 10.980469 9.324219 L 10.980469 0.488281 Z M 0.886719 0.488281 " fill-rule="nonzero"/></g></g></g></g></g></g></g></g></g><g fill="#ffffff" fill-opacity="1"><g transform="translate(54.141763, 23.916364)"><g><path d="M 3.8125 0 C 2.789062 0 2.113281 0.0195312 1.78125 0.0625 L 1.78125 -13.875 C 1.945312 -13.84375 2.289062 -13.828125 2.8125 -13.828125 C 3.34375 -13.828125 3.953125 -13.835938 4.640625 -13.859375 L 4.640625 -2.5 L 6.796875 -2.5 C 7.421875 -2.5 7.921875 -2.519531 8.296875 -2.5625 C 8.242188 -0.9375 8.21875 -0.09375 8.21875 -0.03125 L 8.21875 0.078125 C 7.539062 0.0234375 6.398438 0 4.796875 0 Z M 3.8125 0 "/></g></g><g transform="translate(63.025238, 23.916364)"><g><path d="M 0.734375 -5.375 C 0.734375 -6.132812 0.863281 -6.863281 1.125 -7.5625 C 1.382812 -8.257812 1.757812 -8.867188 2.25 -9.390625 C 3.300781 -10.503906 4.675781 -11.0625 6.375 -11.0625 C 8.050781 -11.0625 9.382812 -10.535156 10.375 -9.484375 C 11.320312 -8.460938 11.796875 -7.144531 11.796875 -5.53125 C 11.796875 -3.925781 11.3125 -2.59375 10.34375 -1.53125 C 9.3125 -0.40625 7.941406 0.15625 6.234375 0.15625 C 4.472656 0.15625 3.09375 -0.394531 2.09375 -1.5 C 1.1875 -2.5 0.734375 -3.789062 0.734375 -5.375 Z M 3.265625 -5.4375 C 3.265625 -5 3.335938 -4.570312 3.484375 -4.15625 C 3.628906 -3.75 3.835938 -3.40625 4.109375 -3.125 C 4.679688 -2.488281 5.4375 -2.171875 6.375 -2.171875 C 7.238281 -2.171875 7.921875 -2.476562 8.421875 -3.09375 C 8.898438 -3.6875 9.140625 -4.460938 9.140625 -5.421875 C 9.140625 -6.390625 8.890625 -7.171875 8.390625 -7.765625 C 7.859375 -8.410156 7.128906 -8.734375 6.203125 -8.734375 C 5.265625 -8.734375 4.523438 -8.390625 3.984375 -7.703125 C 3.503906 -7.085938 3.265625 -6.332031 3.265625 -5.4375 Z M 3.265625 -5.4375 "/></g></g><g transform="translate(75.462105, 23.916364)"><g><path d="M -0.046875 -10.859375 L 2.90625 -10.859375 L 5.4375 -3.703125 L 7.890625 -10.859375 L 10.765625 -10.859375 L 6.46875 0 L 4.328125 0 Z M -0.046875 -10.859375 "/></g></g><g transform="translate(86.174226, 23.916364)"><g><path d="M 0.53125 3.609375 L 1.21875 3.0625 C 2.25 2.226562 3.101562 0.992188 3.78125 -0.640625 L 4.265625 -1.796875 L 0.28125 -10.859375 L 3.1875 -10.859375 L 5.6875 -4.578125 L 8 -10.859375 L 11 -10.859375 C 10.632812 -10.359375 10.191406 -9.429688 9.671875 -8.078125 L 8.109375 -4.21875 C 6.023438 0.6875 4.390625 3.609375 3.203125 4.546875 Z M 0.53125 3.609375 "/></g></g></g><g fill="#8c52ff" fill-opacity="1"><g transform="translate(96.826537, 23.916364)"><g><path d="M 10.515625 -1.015625 C 10.003906 -0.609375 9.34375 -0.289062 8.53125 -0.0625 C 7.726562 0.15625 6.734375 0.265625 5.546875 0.265625 C 4.367188 0.265625 3.113281 0.15625 1.78125 -0.0625 L 1.78125 -13.765625 C 3.125 -13.972656 4.289062 -14.078125 5.28125 -14.078125 C 6.269531 -14.078125 7.082031 -13.984375 7.71875 -13.796875 C 8.351562 -13.609375 8.867188 -13.359375 9.265625 -13.046875 C 10.054688 -12.421875 10.453125 -11.617188 10.453125 -10.640625 C 10.453125 -9.660156 10.097656 -8.847656 9.390625 -8.203125 C 10.234375 -7.941406 10.882812 -7.445312 11.34375 -6.71875 C 11.769531 -6.050781 11.984375 -5.316406 11.984375 -4.515625 C 11.984375 -3.722656 11.863281 -3.039062 11.625 -2.46875 C 11.394531 -1.90625 11.023438 -1.421875 10.515625 -1.015625 Z M 4.546875 -8.59375 C 4.835938 -8.539062 5.195312 -8.515625 5.625 -8.515625 C 6.0625 -8.515625 6.421875 -8.570312 6.703125 -8.6875 C 6.984375 -8.800781 7.203125 -8.945312 7.359375 -9.125 C 7.609375 -9.40625 7.734375 -9.800781 7.734375 -10.3125 C 7.734375 -11.363281 7.109375 -11.890625 5.859375 -11.890625 C 5.335938 -11.890625 4.898438 -11.867188 4.546875 -11.828125 Z M 6.078125 -6.375 C 5.492188 -6.375 4.984375 -6.332031 4.546875 -6.25 L 4.546875 -2.171875 C 5.023438 -2.046875 5.53125 -1.984375 6.0625 -1.984375 C 6.601562 -1.984375 7.070312 -2.046875 7.46875 -2.171875 C 7.875 -2.304688 8.21875 -2.484375 8.5 -2.703125 C 9.0625 -3.160156 9.34375 -3.742188 9.34375 -4.453125 C 9.34375 -5.734375 8.253906 -6.375 6.078125 -6.375 Z M 6.078125 -6.375 "/></g></g><g transform="translate(109.263403, 23.916364)"><g><path d="M 0.734375 -5.375 C 0.734375 -6.132812 0.863281 -6.863281 1.125 -7.5625 C 1.382812 -8.257812 1.757812 -8.867188 2.25 -9.390625 C 3.300781 -10.503906 4.675781 -11.0625 6.375 -11.0625 C 8.050781 -11.0625 9.382812 -10.535156 10.375 -9.484375 C 11.320312 -8.460938 11.796875 -7.144531 11.796875 -5.53125 C 11.796875 -3.925781 11.3125 -2.59375 10.34375 -1.53125 C 9.3125 -0.40625 7.941406 0.15625 6.234375 0.15625 C 4.472656 0.15625 3.09375 -0.394531 2.09375 -1.5 C 1.1875 -2.5 0.734375 -3.789062 0.734375 -5.375 Z M 3.265625 -5.4375 C 3.265625 -5 3.335938 -4.570312 3.484375 -4.15625 C 3.628906 -3.75 3.835938 -3.40625 4.109375 -3.125 C 4.679688 -2.488281 5.4375 -2.171875 6.375 -2.171875 C 7.238281 -2.171875 7.921875 -2.476562 8.421875 -3.09375 C 8.898438 -3.6875 9.140625 -4.460938 9.140625 -5.421875 C 9.140625 -6.390625 8.890625 -7.171875 8.390625 -7.765625 C 7.859375 -8.410156 7.128906 -8.734375 6.203125 -8.734375 C 5.265625 -8.734375 4.523438 -8.390625 3.984375 -7.703125 C 3.503906 -7.085938 3.265625 -6.332031 3.265625 -5.4375 Z M 3.265625 -5.4375 "/></g></g><g transform="translate(121.700269, 23.916364)"><g><path d="M 0.734375 -5.375 C 0.734375 -6.132812 0.863281 -6.863281 1.125 -7.5625 C 1.382812 -8.257812 1.757812 -8.867188 2.25 -9.390625 C 3.300781 -10.503906 4.675781 -11.0625 6.375 -11.0625 C 8.050781 -11.0625 9.382812 -10.535156 10.375 -9.484375 C 11.320312 -8.460938 11.796875 -7.144531 11.796875 -5.53125 C 11.796875 -3.925781 11.3125 -2.59375 10.34375 -1.53125 C 9.3125 -0.40625 7.941406 0.15625 6.234375 0.15625 C 4.472656 0.15625 3.09375 -0.394531 2.09375 -1.5 C 1.1875 -2.5 0.734375 -3.789062 0.734375 -5.375 Z M 3.265625 -5.4375 C 3.265625 -5 3.335938 -4.570312 3.484375 -4.15625 C 3.628906 -3.75 3.835938 -3.40625 4.109375 -3.125 C 4.679688 -2.488281 5.4375 -2.171875 6.375 -2.171875 C 7.238281 -2.171875 7.921875 -2.476562 8.421875 -3.09375 C 8.898438 -3.6875 9.140625 -4.460938 9.140625 -5.421875 C 9.140625 -6.390625 8.890625 -7.171875 8.390625 -7.765625 C 7.859375 -8.410156 7.128906 -8.734375 6.203125 -8.734375 C 5.265625 -8.734375 4.523438 -8.390625 3.984375 -7.703125 C 3.503906 -7.085938 3.265625 -6.332031 3.265625 -5.4375 Z M 3.265625 -5.4375 "/></g></g><g transform="translate(134.137136, 23.916364)"><g><path d="M 4.234375 -1.375 C 4.234375 -0.78125 4.253906 -0.320312 4.296875 0 L 1.6875 0 L 1.6875 -14.859375 L 4.234375 -14.859375 L 4.234375 -5.75 L 8.984375 -10.859375 L 12.0625 -10.859375 L 7.96875 -6.546875 L 10.3125 -3.359375 C 10.8125 -2.554688 11.191406 -1.96875 11.453125 -1.59375 L 12.140625 -0.625 C 12.347656 -0.351562 12.519531 -0.144531 12.65625 0 L 11.015625 0 C 10.398438 0 9.878906 0.0507812 9.453125 0.15625 L 6.203125 -4.578125 L 4.234375 -2.484375 Z M 4.234375 -1.375 "/></g></g></g></svg>